<svg width="48" height="48" viewBox="0 0 48 48" fill="none" xmlns="http://www.w3.org/2000/svg">
<g filter="url(#filter0_d_0_706)">
<rect x="4" width="40" height="40" rx="20" fill="#FF3E79"/>
<path d="M22.2581 23.4583L22.6668 23.0494L20.95 21.3322L20.5412 21.7411L20.3368 21.5367C20.0098 21.1687 19.6828 20.9643 19.3558 21.0052C19.1105 21.0052 18.9061 21.1687 18.7426 21.414C18.4973 21.8229 18.62 22.2726 18.6608 22.5588C18.6608 22.6406 18.7017 22.6815 18.7017 22.7632C18.7017 22.8859 18.7017 23.0494 18.4156 23.0903C18.0068 23.213 17.4754 23.3356 16.944 23.6218C16.2082 24.0307 15.7176 24.3987 15.4315 24.7666C13.919 26.7291 14.0008 28.4055 14.0008 28.4872C14.0008 28.6099 14.0417 28.6917 14.1234 28.7325L15.2271 29.8773C15.3089 29.9591 15.3906 30 15.4724 30C15.4724 30 15.5133 30 15.595 30C16.0038 30 17.4754 29.9182 19.1922 28.569C19.5601 28.2828 19.928 27.7922 20.3368 27.0562C20.623 26.5656 20.7865 26.0341 20.8682 25.5844C20.95 25.2982 21.0726 25.2982 21.1953 25.2982C21.2361 25.2982 21.3179 25.339 21.3996 25.339C21.5631 25.3799 21.7267 25.4208 21.931 25.4208C22.1354 25.4208 22.3398 25.3799 22.5442 25.2573C22.7895 25.0937 22.953 24.8893 22.9939 24.644C23.0347 24.3169 22.8712 23.9898 22.5033 23.7036L22.2581 23.4583Z" fill="white"/>
<path d="M30.884 14.8784L32.0188 14.326C32.0609 14.2835 32.1449 14.241 32.1869 14.1986L33.9101 11.8616C34.0362 11.6916 34.0362 11.4367 33.8681 11.3092L32.6913 10.1195C32.5652 9.99199 32.313 9.9495 32.1449 10.077L29.8333 11.8191C29.7913 11.8616 29.7493 11.9041 29.7072 11.989L29.1609 13.1363L25 17.2154L26.7652 19L30.884 14.8784Z" fill="white"/>
<path d="M31.8527 23.0448C30.8636 22.0036 29.4393 21.6288 28.0941 22.0036L21.6453 15.1733C21.7244 14.7985 21.764 14.4653 21.764 14.0905C21.764 13.0493 21.3683 12.0081 20.6166 11.2167C19.588 10.0923 18.045 9.71742 16.6207 10.2172C16.5416 10.2588 16.4229 10.3838 16.3833 10.5504C16.3833 10.6753 16.4229 10.8003 16.502 10.9252L18.4406 12.966C18.8758 13.4241 18.8758 14.2154 18.4406 14.6735C18.0054 15.1317 17.2537 15.1317 16.8185 14.6735L14.8799 12.6328C14.7612 12.5495 14.6425 12.5078 14.4843 12.5495C14.3656 12.5495 14.2469 12.6744 14.2073 12.7994C13.7326 14.2571 14.0886 15.8813 15.1173 16.9642C15.8294 17.7555 16.8581 18.172 17.8867 18.172C18.2032 18.172 18.5593 18.1303 18.8758 18.047L25.3642 24.8773C25.0082 26.2933 25.4038 27.7927 26.3533 28.8339C27.105 29.6252 28.0546 30 29.0832 30C29.5184 30 29.914 29.9167 30.3492 29.7918C30.4679 29.7501 30.5866 29.6252 30.6262 29.5002C30.6658 29.3753 30.6262 29.2087 30.5075 29.1254L28.5689 27.0846C28.3711 26.8764 28.2128 26.5432 28.2128 26.21C28.2128 25.8768 28.3315 25.5853 28.5689 25.3354C28.8063 25.0855 29.0832 24.9606 29.3997 24.9606C29.7162 24.9606 29.9932 25.0855 30.2306 25.3354L32.1692 27.3762C32.2879 27.4595 32.4065 27.5011 32.5252 27.5011C32.6439 27.4595 32.7626 27.3762 32.8022 27.2512C32.9209 26.8348 33 26.3766 33 25.9185C33 24.8356 32.6044 23.7944 31.8527 23.0448Z" fill="white"/>
</g>
<defs>
<filter id="filter0_d_0_706" x="0" y="0" width="48" height="48" filterUnits="userSpaceOnUse" color-interpolation-filters="sRGB">
<feFlood flood-opacity="0" result="BackgroundImageFix"/>
<feColorMatrix in="SourceAlpha" type="matrix" values="0 0 0 0 0 0 0 0 0 0 0 0 0 0 0 0 0 0 127 0" result="hardAlpha"/>
<feOffset dy="4"/>
<feGaussianBlur stdDeviation="2"/>
<feComposite in2="hardAlpha" operator="out"/>
<feColorMatrix type="matrix" values="0 0 0 0 0 0 0 0 0 0 0 0 0 0 0 0 0 0 0.25 0"/>
<feBlend mode="normal" in2="BackgroundImageFix" result="effect1_dropShadow_0_706"/>
<feBlend mode="normal" in="SourceGraphic" in2="effect1_dropShadow_0_706" result="shape"/>
</filter>
</defs>
</svg>
